<?xml version="1.0" encoding="UTF-8"?>
<svg xmlns="http://www.w3.org/2000/svg" xmlns:xlink="http://www.w3.org/1999/xlink" width="720pt" height="792pt" viewBox="0 0 720 792" version="1.1">
  <symbol id="analemma-icon" >
    <g >
      <path style="fill:none;stroke-width:8;stroke-linecap:round;stroke-linejoin:round;stroke:rgb(51.372549%,54.509804%,54.509804%);stroke-opacity:1;stroke-dasharray:1,3;stroke-miterlimit:10;" d="M 337.5 792 L 337.5 0 "/>
      <path style="fill:none;stroke-width:40;stroke-linecap:round;stroke-linejoin:round;stroke:rgb(0%,0%,0%);stroke-opacity:1;stroke-miterlimit:10;" d="M 247.136719 745.164062 L 236.628906 743.761719 L 226.261719 742.246094 L 216.046875 740.613281 L 205.996094 738.867188 L 196.121094 737.007812 L 186.425781 735.03125 L 176.925781 732.945312 L 167.628906 730.75 L 158.546875 728.445312 L 149.683594 726.03125 L 141.050781 723.507812 L 132.65625 720.878906 L 124.507812 718.148438 L 116.609375 715.308594 L 108.972656 712.371094 L 101.601562 709.332031 L 94.5 706.191406 L 87.675781 702.953125 L 81.136719 699.617188 L 74.882812 696.1875 L 68.917969 692.664062 L 63.25 689.050781 L 57.878906 685.34375 L 52.808594 681.546875 L 48.042969 677.664062 L 43.582031 673.699219 L 39.425781 669.644531 L 35.582031 665.511719 L 32.042969 661.296875 L 28.816406 657.003906 L 25.894531 652.632812 L 23.285156 648.183594 L 20.984375 643.664062 L 18.992188 639.074219 L 17.300781 634.410156 L 15.917969 629.679688 L 14.835938 624.882812 L 14.054688 620.019531 L 13.566406 615.09375 L 13.375 610.109375 L 13.472656 605.0625 L 13.859375 599.957031 L 14.527344 594.800781 L 15.476562 589.585938 L 16.699219 584.316406 L 18.191406 579 L 19.945312 573.636719 L 21.964844 568.222656 L 24.238281 562.761719 L 26.757812 557.261719 L 29.523438 551.71875 L 32.527344 546.132812 L 35.761719 540.511719 L 39.222656 534.851562 L 42.90625 529.15625 L 46.800781 523.429688 L 50.898438 517.671875 L 55.199219 511.882812 L 59.695312 506.066406 L 64.375 500.222656 L 69.234375 494.355469 L 74.265625 488.464844 L 79.460938 482.550781 L 84.8125 476.621094 L 90.316406 470.671875 L 95.960938 464.703125 L 101.742188 458.722656 L 107.652344 452.726562 L 113.679688 446.722656 L 119.824219 440.707031 L 126.070312 434.679688 L 132.414062 428.648438 L 138.847656 422.613281 L 145.359375 416.574219 L 151.949219 410.53125 L 158.605469 404.488281 L 165.320312 398.445312 L 172.082031 392.40625 L 178.890625 386.375 L 185.734375 380.34375 L 192.605469 374.320312 L 199.496094 368.308594 L 206.398438 362.304688 L 213.304688 356.316406 L 220.210938 350.335938 L 227.105469 344.375 L 233.980469 338.425781 L 240.832031 332.496094 L 247.652344 326.589844 L 254.429688 320.699219 L 261.164062 314.832031 L 267.839844 308.988281 L 274.457031 303.171875 L 281.003906 297.378906 L 287.476562 291.617188 L 293.867188 285.882812 L 300.167969 280.179688 L 306.375 274.511719 L 312.480469 268.875 L 318.476562 263.273438 L 324.355469 257.710938 L 330.117188 252.1875 L 335.753906 246.699219 L 341.253906 241.253906 L 346.617188 235.855469 L 351.839844 230.496094 L 356.910156 225.183594 L 361.824219 219.917969 L 366.582031 214.699219 L 371.171875 209.53125 L 375.597656 204.414062 L 379.847656 199.351562 L 383.917969 194.339844 L 387.804688 189.386719 L 391.507812 184.488281 L 395.023438 179.648438 L 398.339844 174.867188 L 401.464844 170.144531 L 404.386719 165.488281 L 407.109375 160.890625 L 409.625 156.363281 L 411.929688 151.898438 L 414.027344 147.503906 L 415.914062 143.175781 L 417.589844 138.917969 L 419.046875 134.734375 L 420.292969 130.621094 L 421.320312 126.582031 L 422.128906 122.617188 L 422.726562 118.730469 L 423.101562 114.917969 L 423.265625 111.1875 L 423.210938 107.539062 L 422.941406 103.96875 L 422.460938 100.484375 L 421.765625 97.078125 L 420.863281 93.761719 L 419.753906 90.53125 L 418.4375 87.382812 L 416.921875 84.328125 L 415.203125 81.359375 L 413.292969 78.480469 L 411.191406 75.695312 L 408.898438 73 L 406.425781 70.398438 L 403.773438 67.890625 L 400.949219 65.476562 L 397.953125 63.160156 L 394.796875 60.941406 L 391.484375 58.816406 L 388.019531 56.792969 L 384.410156 54.867188 L 380.660156 53.039062 L 376.78125 51.3125 L 372.78125 49.6875 L 368.660156 48.164062 L 364.429688 46.742188 L 360.097656 45.421875 L 355.675781 44.207031 L 351.164062 43.09375 L 346.574219 42.082031 L 341.914062 41.175781 L 337.195312 40.378906 L 332.425781 39.679688 L 327.609375 39.089844 L 322.757812 38.605469 L 317.882812 38.226562 L 312.988281 37.949219 L 308.085938 37.78125 L 303.183594 37.71875 L 298.292969 37.761719 L 293.421875 37.910156 L 288.574219 38.164062 L 283.765625 38.523438 L 279.003906 38.984375 L 274.292969 39.554688 L 269.648438 40.230469 L 265.074219 41.007812 L 260.578125 41.890625 L 256.171875 42.875 L 251.859375 43.964844 L 247.652344 45.15625 L 243.5625 46.449219 L 239.585938 47.84375 L 235.742188 49.34375 L 232.03125 50.9375 L 228.460938 52.636719 L 225.039062 54.433594 L 221.773438 56.328125 L 218.671875 58.320312 L 215.734375 60.410156 L 212.972656 62.597656 L 210.390625 64.878906 L 207.992188 67.253906 L 205.78125 69.726562 L 203.765625 72.289062 L 201.949219 74.941406 L 200.332031 77.6875 L 198.925781 80.519531 L 197.726562 83.445312 L 196.742188 86.453125 L 195.972656 89.550781 L 195.421875 92.734375 L 195.09375 96.003906 L 194.988281 99.355469 L 195.105469 102.785156 L 195.449219 106.300781 L 196.019531 109.894531 L 196.816406 113.566406 L 197.84375 117.316406 L 199.101562 121.144531 L 200.585938 125.042969 L 202.296875 129.019531 L 204.234375 133.066406 L 206.398438 137.183594 L 208.789062 141.375 L 211.40625 145.632812 L 214.242188 149.957031 L 217.296875 154.347656 L 220.570312 158.800781 L 224.058594 163.320312 L 227.761719 167.902344 L 231.671875 172.542969 L 235.789062 177.246094 L 240.109375 182.003906 L 244.625 186.820312 L 249.339844 191.695312 L 254.246094 196.621094 L 259.339844 201.597656 L 264.613281 206.628906 L 270.066406 211.710938 L 275.691406 216.839844 L 281.488281 222.015625 L 287.445312 227.238281 L 293.5625 232.507812 L 299.828125 237.816406 L 306.242188 243.167969 L 312.796875 248.5625 L 319.488281 253.996094 L 326.308594 259.464844 L 333.25 264.972656 L 340.308594 270.511719 L 347.476562 276.089844 L 354.75 281.695312 L 362.121094 287.332031 L 369.582031 293 L 377.125 298.699219 L 384.746094 304.421875 L 392.4375 310.167969 L 400.1875 315.941406 L 407.996094 321.734375 L 415.855469 327.550781 L 423.753906 333.386719 L 431.683594 339.242188 L 439.640625 345.113281 L 447.617188 351 L 455.605469 356.898438 L 463.597656 362.8125 L 471.585938 368.734375 L 479.5625 374.671875 L 487.519531 380.613281 L 495.453125 386.5625 L 503.347656 392.515625 L 511.203125 398.476562 L 519.007812 404.4375 L 526.753906 410.398438 L 534.433594 416.363281 L 542.042969 422.324219 L 549.566406 428.28125 L 557.003906 434.230469 L 564.347656 440.179688 L 571.585938 446.117188 L 578.710938 452.046875 L 585.714844 457.964844 L 592.59375 463.867188 L 599.335938 469.761719 L 605.9375 475.636719 L 612.390625 481.496094 L 618.683594 487.335938 L 624.8125 493.15625 L 630.769531 498.953125 L 636.546875 504.730469 L 642.140625 510.480469 L 647.539062 516.203125 L 652.738281 521.898438 L 657.730469 527.566406 L 662.507812 533.199219 L 667.0625 538.800781 L 671.394531 544.367188 L 675.492188 549.898438 L 679.347656 555.390625 L 682.960938 560.84375 L 686.320312 566.253906 L 689.421875 571.621094 L 692.261719 576.945312 L 694.835938 582.222656 L 697.132812 587.449219 L 699.15625 592.628906 L 700.894531 597.757812 L 702.34375 602.828125 L 703.503906 607.847656 L 704.367188 612.808594 L 704.933594 617.714844 L 705.195312 622.558594 L 705.152344 627.335938 L 704.796875 632.054688 L 704.132812 636.707031 L 703.15625 641.292969 L 701.863281 645.808594 L 700.25 650.25 L 698.320312 654.625 L 696.074219 658.921875 L 693.503906 663.144531 L 690.613281 667.289062 L 687.40625 671.355469 L 683.875 675.339844 L 680.03125 679.242188 L 675.863281 683.0625 L 671.382812 686.792969 L 666.589844 690.4375 L 661.488281 693.992188 L 656.074219 697.457031 L 650.359375 700.832031 L 644.339844 704.109375 L 638.027344 707.292969 L 631.425781 710.378906 L 624.535156 713.367188 L 617.363281 716.257812 L 609.917969 719.042969 L 602.203125 721.730469 L 594.226562 724.3125 L 586 726.789062 L 577.523438 729.15625 L 568.8125 731.421875 L 559.867188 733.574219 L 550.703125 735.621094 L 541.328125 737.554688 L 531.753906 739.375 L 521.984375 741.082031 L 512.035156 742.679688 L 501.917969 744.160156 L 491.636719 745.523438 L 481.207031 746.773438 L 470.644531 747.90625 L 459.953125 748.921875 L 449.148438 749.820312 L 438.246094 750.597656 L 427.253906 751.257812 L 416.183594 751.796875 L 405.050781 752.214844 L 393.871094 752.515625 L 382.648438 752.695312 L 371.40625 752.757812 L 360.148438 752.695312 L 348.894531 752.515625 L 337.65625 752.214844 L 326.441406 751.792969 L 315.269531 751.25 L 304.148438 750.589844 L 293.09375 749.808594 L 282.117188 748.90625 L 271.234375 747.886719 L 260.453125 746.75 L 249.785156 745.496094 "/>
    </g>
  </symbol>
</svg>
